<?xml version="1.0" encoding="utf-8"?>
<!-- Generator: Adobe Illustrator 25.4.1, SVG Export Plug-In . SVG Version: 6.00 Build 0)  -->
<svg version="1.1" xmlns="http://www.w3.org/2000/svg" xmlns:xlink="http://www.w3.org/1999/xlink" x="0px" y="0px"
	 viewBox="0 0 400 400" style="enable-background:new 0 0 400 400;" xml:space="preserve">
<style type="text/css">
	.st0{display:none;}
	.st1{display:inline;fill:#FFFFFF;stroke:#152A42;stroke-width:2;stroke-miterlimit:10;}
	.st2{fill:#DB4338;}
	.st3{fill:#FFFFFF;}
</style>
<g id="レイヤー_1" class="st0">
	<path class="st1" d="M378.3-106H355c-7-22-31-35-31-35c4,17-6,32-22,35H22.7C12.9-106,5-98.1,5-88.3v490.5
		c0,9.8,7.9,17.7,17.7,17.7h355.5c9.8,0,17.7-7.9,17.7-17.7V-88.3C396-98.1,388.1-106,378.3-106z"/>
</g>
<g id="レイヤー_2">
	<g>
		<circle id="楕円形_2" class="st2" cx="200" cy="200" r="200"/>
		<g id="メールの無料アイコンその8" transform="translate(10.582 13.404)">
			<path id="パス_11" class="st3" d="M303.5,122.2c-1-5.1-3.3-9.9-6.5-13.9c-0.7-0.8-1.4-1.6-2.2-2.4c-6-6-14.1-9.3-22.5-9.3
				H106.6c-8.4,0-16.5,3.3-22.5,9.3c-0.8,0.8-1.5,1.6-2.2,2.4c-3.3,4-5.5,8.8-6.5,13.9c-0.4,2.1-0.6,4.2-0.6,6.3v116.4
				c0,4.3,0.9,8.7,2.6,12.6c1.6,3.7,3.8,7,6.7,9.9c0.7,0.7,1.4,1.4,2.2,2c5.7,4.7,12.9,7.3,20.3,7.3h165.7c7.4,0,14.6-2.6,20.3-7.3
				c0.8-0.6,1.5-1.3,2.2-2c2.8-2.8,5.1-6.2,6.7-9.9l0,0c1.7-4,2.6-8.3,2.6-12.6V128.4C304.1,126.3,303.9,124.2,303.5,122.2z
				 M95.6,117.4c2.9-2.9,6.9-4.6,11-4.6h165.7c4.9,0,9.5,2.3,12.4,6.2l-86.9,75.7c-4.8,4.2-12,4.2-16.8,0L94.2,119
				C94.6,118.4,95.1,117.9,95.6,117.4z M91,244.7V135.8l62.9,54.8l-62.8,54.8C91,245.2,91,245,91,244.7L91,244.7z M272.2,260.3
				H106.6c-2.7,0-5.4-0.7-7.7-2l66.3-57.8l6.2,5.4c10.4,9,25.8,9,36.2,0l6.2-5.4l66.2,57.8C277.6,259.6,275,260.3,272.2,260.3
				L272.2,260.3z M287.7,244.7c0,0.2,0,0.5,0,0.7l-62.9-54.7l62.9-54.8L287.7,244.7z"/>
		</g>
	</g>
</g>
</svg>
