<!--?xml version="1.0" encoding="utf-8"?-->
<!-- Generator: Adobe Illustrator 19.1.1, SVG Export Plug-In . SVG Version: 6.00 Build 0)  -->
<svg version="1.1" id="_x31_0" xmlns="http://www.w3.org/2000/svg" xmlns:xlink="http://www.w3.org/1999/xlink" x="0px" y="0px" viewBox="0 0 512 512" style="width: 256px; height: 256px; opacity: 1;" xml:space="preserve">
<style type="text/css">
	.st0{fill:#374149;}
</style>
<g>
	<path class="st0" d="M442.766,395.919c-4.156-17.882-17.03-31.506-33.366-37.318c-0.035-0.012-0.07-0.031-0.11-0.043
		c-2.633-0.93-5.347-1.617-8.14-2.117c-0.141-0.027-0.281-0.066-0.426-0.09c-2.715-0.465-5.48-0.68-8.304-0.707
		c-0.172,0-0.336-0.043-0.508-0.043c-0.211,0-0.442,0.008-0.656,0.008c-0.856,0.012-1.676-0.125-2.535-0.07h-0.383l-23.604,2.406
		l-9.277,0.886c1.965-6.164,2.422-12.706,1.43-19.17c-1.523-9.695-6.41-18.702-13.738-25.269l-45.65-40.763
		c-17.554-15.648-40.912-22.288-64.044-18.242l-87.554,15.265c-4.961,0.84-9.695,2.446-13.972,4.734
		c-3.328-3.574-7.816-5.91-12.71-6.957c-0.094-0.019-0.183-0.042-0.274-0.062c-1.546-0.312-3.105-0.469-4.718-0.48
		c-0.05,0-0.098-0.016-0.148-0.016c-0.125,0-0.254,0.027-0.379,0.027c-1.098,0.016-2.179-0.082-3.293,0.082l-46.334,7.175
		c-2.926-2.144-6.234-3.691-9.71-4.836c-0.004-0.003-0.007-0.003-0.011-0.003c-1.66-0.547-3.355-0.954-5.106-1.242
		c-0.098-0.016-0.195-0.027-0.289-0.043c-3.484-0.542-7.074-0.722-10.765-0.133l-38.166,5.878v147.715L0,445.909h0.027v0.16
		l64.047-9.922c9.539-1.453,17.554-6.644,22.823-13.819l46.334-7.25c6.41-0.918,11.757-4.351,15.495-9.086
		c4.886,0.992,9.999,1.222,15.117,0.535l26.713-3.664l47.939,50.533c12.214,12.749,29.237,19.159,46.716,17.71l0.305-0.074
		l110.99-11.3c14.35-1.222,27.557-8.472,36.49-19.694c8.854-11.37,12.671-26.104,10.53-40.302
		C443.301,398.434,443.07,397.138,442.766,395.919z M257.806,291.55c5.82,1.672,11.269,4.644,15.878,8.797l45.65,40.685
		c1.218,1.149,1.984,2.523,2.211,4.125c0.23,1.297,0,2.672-0.61,3.969c-4.73,9.925-17.253,12.902-25.952,6.335l-23.131-17.558
		c-4.504-3.433-10.992-1.754-13.281,3.512l-1.374,3.054c-0.688,1.527-0.918,3.207-0.61,4.886c0.226,1.602,0.992,3.203,2.137,4.504
		l33.966,37.021c4.43,4.886,10.766,7.402,17.406,7.023l80.762-6.64c8.015-0.535,15.268,4.808,17.096,12.671
		c0.078,0.457,0.153,0.84,0.231,1.218c1.449,9.39-5.344,18.246-14.886,19.007l-111.142,11.374c-6.64,0.535-13.128-1.985-17.71-6.793
		l-51.982-54.658c-4.598-4.922-11.015-7.421-17.671-7.441c-0.02,0-0.035-0.004-0.051-0.004c-0.035,0-0.074,0.008-0.109,0.008
		c-1.027,0.004-2.051-0.098-3.082,0.035l-32.522,4.426c-2.21,0.285-4.332-0.11-6.187-1.016c-0.07-0.034-0.137-0.078-0.203-0.113
		c-0.566-0.293-1.117-0.621-1.625-1.008l-8.09-52.212c-0.078-5.343,3.817-10.078,9.082-10.991l87.632-15.191
		c6.098-1.066,12.285-0.706,18.105,0.958C257.767,291.538,257.787,291.546,257.806,291.55z M104.912,305.002l2.363,15.116
		l9.542,61.372l-25.264,3.894l-11.831-76.488L104.912,305.002z" style="fill: rgb(62, 62, 62);"></path>
	<path class="st0" d="M403.514,40.692c-59.739,0-108.401,48.666-108.401,108.486c0,59.739,48.662,108.401,108.401,108.401
		c59.825,0,108.486-48.662,108.486-108.401C512,89.358,463.338,40.692,403.514,40.692z M403.514,222.593
		c-40.439,0-73.414-32.975-73.414-73.414c0-40.525,32.975-73.414,73.414-73.414c40.525,0,73.5,32.89,73.5,73.414
		C477.014,189.618,444.038,222.593,403.514,222.593z" style="fill: rgb(62, 62, 62);"></path>
	<polygon class="st0" points="420.458,114.321 407.018,131.87 403.522,136.37 386.636,114.321 373.734,114.321 365.805,114.223 
		365.879,114.321 365.676,114.321 379.757,132.699 388.163,143.827 371.449,143.827 371.449,155.764 371.449,155.799 
		371.449,155.799 371.449,155.959 395.362,155.959 395.362,160.506 371.449,160.506 371.449,172.435 371.449,172.47 371.449,172.47 
		371.449,172.63 395.362,172.63 395.362,192.969 411.732,192.969 411.732,172.63 435.43,172.63 435.5,172.634 435.5,172.63 
		435.66,172.63 435.66,160.506 411.732,160.506 411.732,155.959 435.66,155.959 435.66,143.827 425.082,143.827 418.88,143.734 
		432.832,125.523 441.414,114.481 441.289,114.481 441.414,114.321 	" style="fill: rgb(62, 62, 62);"></polygon>
</g>
</svg>
